<svg width="457" height="164" viewBox="0 0 457 164" fill="none" xmlns="http://www.w3.org/2000/svg">
<path d="M23.0936 163.261V69.1874H0L7.62873 42H50.2897V163.261H23.0936Z" fill="#7171FF"/>
<path d="M104.682 83.0352V163.261H77.4858V41.9775H104.682V55.8939C110.006 51.7466 115.376 49.7651 122.774 46.8621C130.173 43.959 138.377 42.4844 147.366 42.4844C162.67 42.4844 173.825 46.0557 180.808 53.2212C187.791 60.3636 191.295 71.5151 191.295 86.6525V163.238H164.329V87.8967C164.329 78.7497 163.983 74.7177 159.696 69.8792C154.05 63.5432 120.493 62.7598 104.682 83.0352Z" fill="#7171FF"/>
<path d="M191.894 76.7008V163.286H164.698V45.0205H191.848L191.894 57.4852V76.7008Z" fill="#7171FF"/>
<path d="M191.848 45.0218C179.54 42.5334 153.566 40.6902 139.046 43.2476C145.73 54.9521 191.848 45.0218 191.848 45.0218Z" fill="#7171FF"/>
<path d="M219.067 163.286V0H251.771V89.8799L301.093 42.0253H338.407L285.697 95.4556L338.384 163.286H303.721L265.093 112.667L251.771 125.5V163.286H219.067V163.286Z" fill="#3A3A3A"/>
<path d="M386.138 163.262C378.648 163.262 371.549 162.226 365.303 159.138C360.21 156.65 356.822 154.415 353.457 150.936C352.143 149.6 350.968 148.102 349.931 146.535C346.635 141.582 343.961 135.545 343.961 128.541C343.961 116.905 348.087 107.574 356.315 100.593C364.543 93.6118 376.735 90.1096 392.868 90.1096H427.808V86.8609C427.808 79.5341 425.78 74.3962 421.701 71.401C417.621 68.4057 409.44 66.9082 397.109 66.9082C383.626 66.9082 370.651 68.9818 358.182 73.152V49.4436C363.667 47.2779 370.374 45.5038 378.279 44.0753C386.185 42.6698 394.781 41.9556 404.116 41.9556C421.908 41.9556 432.211 45.5729 441.937 52.8075C451.663 60.0421 456.549 71.6544 456.549 87.6213V163.239H429.099V151.996C424.42 155.175 418.705 157.41 411.883 159.737C405.037 162.11 396.464 163.262 386.138 163.262ZM395.427 142.319C402.917 142.319 409.347 140.061 414.856 137.549C420.341 135.061 424.674 131.905 427.831 128.057V111.076H393.629C380.492 111.076 373.9 116.491 373.9 127.297C373.923 137.803 381.114 142.319 395.427 142.319Z" fill="#3A3A3A"/>
<path d="M427.831 111.099C426.771 141.535 395.934 142.319 395.934 142.319L432.764 145.452L427.831 111.099Z" fill="#3A3A3A"/>
<path d="M50.3128 0H23.1167V27.1874H50.3128V0Z" fill="#7171FF"/>
</svg>
